<?xml version="1.0" encoding="utf-8"?>
<!-- Generator: Adobe Illustrator 25.4.1, SVG Export Plug-In . SVG Version: 6.00 Build 0)  -->
<svg version="1.1" id="Layer_1" xmlns="http://www.w3.org/2000/svg" xmlns:xlink="http://www.w3.org/1999/xlink" x="0px" y="0px"
	 viewBox="0 0 399.6 560" style="enable-background:new 0 0 399.6 560;" xml:space="preserve">
<path d="M355.8,81.7L17.5,315c-23.3,11.7-23.3,11.7,0,35c11.7,23.3,11.7,23.3,23.3,11.7l350-245c11.7-11.7,11.7-11.7,0-35
	C379.2,58.3,379.2,58.3,355.8,81.7L355.8,81.7z M204.2,0c-46.7,0-93.3,35-93.3,93.3v99l183-126.2C281.9,24.3,243,0,204.2,0L204.2,0z
	 M297.5,123.7L110.8,254.3V280c0,58.3,46.7,93.3,93.3,93.3s93.3-35,93.3-93.3L297.5,123.7z M367.5,233.3c-23.3,0-23.3,0-23.3,23.3
	l0,23.3c0,81.7-58.3,140-140,140c-44.8,0-82.6-17.7-105-46.7L59,399c28,32.2,69.1,56,121.8,67.7v70c0,23.3,0,23.3,23.3,23.3
	s23.3,0,23.3-23.3v-70c105-23.3,163.3-93.3,163.3-186.7v-23.3C390.8,233.3,390.8,233.3,367.5,233.3L367.5,233.3z"/>
</svg>
